<?xml version="1.0" encoding="UTF-8" standalone="no"?>
<!-- Created with Inkscape (http://www.inkscape.org/) -->

<svg
   width="210mm"
   height="297mm"
   viewBox="0 0 210 297"
   version="1.1"
   id="svg5"
   inkscape:version="1.1.2 (b8e25be833, 2022-02-05)"
   sodipodi:docname="arrow1.svg"
   xmlns:inkscape="http://www.inkscape.org/namespaces/inkscape"
   xmlns:sodipodi="http://sodipodi.sourceforge.net/DTD/sodipodi-0.dtd"
   xmlns="http://www.w3.org/2000/svg"
   xmlns:svg="http://www.w3.org/2000/svg">
  <sodipodi:namedview
     id="namedview7"
     pagecolor="#ffffff"
     bordercolor="#666666"
     borderopacity="1.0"
     inkscape:pageshadow="2"
     inkscape:pageopacity="0.0"
     inkscape:pagecheckerboard="0"
     inkscape:document-units="mm"
     showgrid="false"
     inkscape:zoom="1.0998546"
     inkscape:cx="90.466503"
     inkscape:cy="481.88188"
     inkscape:window-width="2560"
     inkscape:window-height="1377"
     inkscape:window-x="-8"
     inkscape:window-y="-8"
     inkscape:window-maximized="1"
     inkscape:current-layer="layer1">
    <inkscape:grid
       type="xygrid"
       id="grid3156" />
  </sodipodi:namedview>
  <defs
     id="defs2" />
  <g
     inkscape:label="Layer 1"
     inkscape:groupmode="layer"
     id="layer1">
    <path
       id="path1437"
       style="fill:#000000;fill-rule:evenodd;stroke:#000000;stroke-width:0.264583;fill-opacity:1"
       d="M 191.53609,138.12372 A 90.49485,90.49485 0 0 1 101.04124,228.61857 90.49485,90.49485 0 0 1 10.546383,138.12372 90.49485,90.49485 0 0 1 101.04124,47.628861 90.49485,90.49485 0 0 1 191.53609,138.12372 Z" />
    <path
       id="rect2625"
       style="fill:#97b4d4;stroke:#ffffff;stroke-width:1.22079"
       d="M 82.532251,80.397843 H 116.41667 V 114.28226 H 82.532251 Z" />
    <path
       id="rect2625-2"
       style="fill:#97b4d4;stroke:#ffffff;stroke-width:1.22079"
       d="m 82.532251,114.28226 h 33.884419 v 33.88441 H 82.532251 Z" />
    <path
       id="rect2625-1"
       style="fill:#97b4d4;stroke:#ffffff;stroke-width:1.22079"
       d="m 82.532252,148.16667 h 33.884418 v 33.88441 H 82.532252 Z" />
    <path
       style="fill:#97b4d4;fill-opacity:1;stroke:#ffffff;stroke-width:1.865;stroke-linecap:butt;stroke-linejoin:miter;stroke-miterlimit:4;stroke-dasharray:none;stroke-opacity:1"
       d="M 116.41667,182.5625 H 142.875 c -13.32281,12.40585 -28.01345,23.18896 -42.33333,34.39583 C 85.373118,206.5775 71.996677,194.6273 58.208333,182.5625 l 23.8125,0 z"
       id="path3191"
       sodipodi:nodetypes="cccccc" />
  </g>
</svg>
