<?xml version="1.0" encoding="UTF-8"?>
<!-- Created with Inkscape (http://www.inkscape.org/) -->
<svg width="33.798mm" height="34.279mm" version="1.1" viewBox="0 0 33.798 34.279" xmlns="http://www.w3.org/2000/svg">
 <g transform="translate(-84.137 -120.7)">
  <path d="m117.55 138.12a16.51 16.51 0 0 1-16.51 16.51 16.51 16.51 0 0 1-16.51-16.51 16.51 16.51 0 0 1 16.51-16.51 16.51 16.51 0 0 1 16.51 16.51z" fill-rule="evenodd" stroke="#000" stroke-width=".04827"/>
  <g fill="#97b4d4" stroke="#fff" stroke-width=".6">
   <path d="m97.664 126h6.1819v6.1819h-6.1819z"/>
   <path d="m97.664 132.19h6.1819v6.1819h-6.1819z"/>
   <path d="m97.664 138.37h6.1819v6.1819h-6.1819z"/>
   <path d="m103.85 144.64h4.8271c-2.4306 2.2633-5.1108 4.2306-7.7233 6.2752-2.7674-1.8939-5.2078-4.0741-7.7233-6.2752h4.3444z"/>
  </g>
 </g>
</svg>
